<svg id="eCS641GL8rv1" xmlns="http://www.w3.org/2000/svg" xmlns:xlink="http://www.w3.org/1999/xlink" viewBox="0 0 140 140" shape-rendering="geometricPrecision" text-rendering="geometricPrecision" project-id="d988a65320af44b2b950dbd5e89cee3c" export-id="6394cd23d34a493c8fe1ecda6cab18fd" cached="false"><g transform="matrix(.855053 0 0 0.855053 10.466935 49.478728)"><path d="M8.665,6.134v-.035C8.665,2.747,11.19,0,14.813,0c2.225,0,3.554.744,4.646,1.822L17.81,3.728c-.91-.828-1.835-1.329-3.018-1.329-1.989,0-3.421,1.649-3.421,3.672v.035c0,2.024,1.397,3.707,3.421,3.707c1.35,0,2.17-.543,3.102-1.384l1.648,1.669c-1.21,1.293-2.56,2.107-4.833,2.107-3.47,0-6.044-2.677-6.044-6.064v-.007ZM20.578,7.532v-.035c0-2.594,2.087-4.701,4.903-4.701c2.817,0,4.868,2.072,4.868,4.666v.035c0,2.594-2.086,4.701-4.902,4.701-2.817,0-4.869-2.072-4.869-4.666Zm7.24,0v-.035c0-1.328-.96-2.49-2.378-2.49-1.42,0-2.344,1.127-2.344,2.462v.035c0,1.328.96,2.49,2.378,2.49c1.419,0,2.344-1.127,2.344-2.462Zm3.776,0v-.035c0-2.594,2.087-4.701,4.903-4.701c2.817,0,4.868,2.072,4.868,4.666v.035c0,2.594-2.086,4.701-4.903,4.701-2.816,0-4.868-2.072-4.868-4.666Zm7.24,0v-.035c0-1.328-.96-2.49-2.379-2.49-1.418,0-2.343,1.127-2.343,2.462v.035c0,1.328.96,2.49,2.378,2.49c1.419,0,2.344-1.127,2.344-2.462Zm4.214-4.569h2.56v1.3c.626-.841,1.48-1.467,2.816-1.467c2.107,0,4.11,1.648,4.11,4.666v.035c0,3.018-1.968,4.667-4.11,4.667-1.363,0-2.204-.626-2.816-1.35v3.874h-2.56v-11.725Zm6.92,4.534v-.035c0-1.502-1.008-2.49-2.205-2.49-1.196,0-2.19.995-2.19,2.49v.035c0,1.502.994,2.49,2.19,2.49c1.197,0,2.205-.974,2.205-2.49Zm3.846.035v-.035c0-2.58,1.836-4.701,4.465-4.701c3.018,0,4.395,2.344,4.395,4.903c0,.202-.014.438-.035.674h-6.28c.25,1.162,1.064,1.767,2.205,1.767.862,0,1.481-.271,2.19-.925l1.468,1.293c-.842,1.044-2.059,1.683-3.686,1.683-2.712,0-4.715-1.905-4.715-4.666l-.007.007Zm6.363-.758c-.153-1.148-.827-1.92-1.905-1.92s-1.753.758-1.954,1.92h3.86-.001Zm4.229-3.811h2.559v1.822c.521-1.245,1.363-2.059,2.879-1.99v2.678h-.132c-1.704,0-2.747,1.03-2.747,3.185v3.338h-2.56v-9.033h.001Z" fill="#003449"/><path d="M0,26.97v-.056c0-5.828,4.388-10.599,10.682-10.599c3.867,0,6.176,1.287,8.081,3.165l-2.865,3.31c-1.579-1.433-3.192-2.316-5.237-2.316-3.456,0-5.939,2.872-5.939,6.384v.063c0,3.512,2.427,6.44,5.94,6.44c2.343,0,3.775-.939,5.382-2.4l2.872,2.9c-2.107,2.254-4.45,3.659-8.4,3.659-6.03,0-10.509-4.653-10.509-10.536L0,26.97Zm20.815,5.681v-.055c0-3.422,2.608-5.007,6.322-5.007c1.578,0,2.719.264,3.831.646v-.264c0-1.843-1.14-2.865-3.366-2.865-1.697,0-2.9.32-4.332.848l-1.113-3.393c1.725-.765,3.422-1.26,6.092-1.26c2.427,0,4.187.648,5.3,1.753c1.168,1.169,1.696,2.9,1.696,5.008v9.103h-4.304v-1.697c-1.085,1.203-2.574,1.989-4.743,1.989-2.956,0-5.383-1.697-5.383-4.799v-.007Zm10.216-1.029v-.793c-.758-.354-1.76-.584-2.837-.584-1.906,0-3.074.758-3.074,2.163v.063c0,1.196.994,1.905,2.427,1.905c2.08,0,3.484-1.14,3.484-2.754ZM53.188,15.787h4.45v7.9c1.023-1.315,2.345-2.518,4.598-2.518c3.366,0,5.327,2.226,5.327,5.828v10.16h-4.451v-8.747c0-2.107-.994-3.192-2.691-3.192s-2.782,1.085-2.782,3.192v8.749h-4.451v-21.372ZM75.582,35.106v2.052h-4.452v-21.364h4.45v7.934c1.085-1.46,2.574-2.545,4.89-2.545c3.658,0,7.142,2.872,7.142,8.11v.062c0,5.236-3.422,8.109-7.142,8.109-2.372,0-3.832-1.085-4.89-2.344v-.014h.002Zm7.58-5.765v-.063c0-2.608-1.76-4.332-3.832-4.332-2.073,0-3.804,1.724-3.804,4.332v.063c0,2.608,1.725,4.332,3.804,4.332c2.08,0,3.832-1.696,3.832-4.332Zm6.502,3.31v-.055c0-3.422,2.608-5.007,6.322-5.007c1.579,0,2.72.264,3.832.646v-.264c0-1.843-1.14-2.865-3.366-2.865-1.697,0-2.9.32-4.333.848l-1.112-3.393c1.724-.765,3.421-1.26,6.092-1.26c2.427,0,4.186.648,5.299,1.753c1.168,1.169,1.697,2.9,1.697,5.008v9.103h-4.305v-1.697c-1.085,1.203-2.573,1.989-4.743,1.989-2.956,0-5.383-1.697-5.383-4.799v-.007ZM99.88,31.622v-.793c-.758-.354-1.759-.584-2.837-.584-1.906,0-3.074.758-3.074,2.163v.063c0,1.196.995,1.905,2.427,1.905c2.08,0,3.484-1.14,3.484-2.754Zm6.997-2.225v-.056c0-4.478,3.421-8.164,8.227-8.164c2.956,0,4.798.994,6.266,2.636l-2.719,2.927c-.995-1.057-1.989-1.724-3.575-1.724-2.225,0-3.804,1.96-3.804,4.27v.062c0,2.4,1.551,4.333,3.978,4.333c1.495,0,2.517-.647,3.602-1.67l2.608,2.637c-1.523,1.669-3.275,2.872-6.412,2.872-4.715,0-8.164-3.63-8.164-8.11l-.007-.013Zm17.184-13.61h4.451v11.383l5.209-5.71h5.327l-5.974,6.176l6.176,9.514h-5.154l-4.012-6.44-1.579,1.669v4.77h-4.451v-21.361h.007v-.001ZM45.552,27.672c-1.697-.584-3.192-.995-3.192-1.87v-.056c0-.612.556-1.085,1.641-1.085c1.14,0,2.692.556,4.242,1.46l1.697-3.074c-1.197329-.793049-2.539795-1.341251-3.95-1.613v-2.358h-3.317v2.288c-2.476.46-4.319,2.15-4.319,4.84v.056c0,3.046,2.49,4.068,4.68,4.715c1.725.529,3.248.849,3.248,1.815v.056c0,.703-.584,1.168-1.87,1.168-1.461,0-3.248-.646-4.945-1.87l-1.906,2.928c1.485465,1.169587,3.245101,1.940289,5.112,2.239v2.288h3.317v-2.309c2.532-.466,4.305-2.038,4.305-4.917v-.055c0-2.866-2.545-3.923-4.743-4.653v.007ZM26.156,40.225c.14573-.195752.374962-.311664.619-.313h4.249c.413801.012923.743102.351124.744988.765123s-.324322.755185-.737988.771877h-1.892c.348.132.703.257,1.064.376c1.53.5,3.116.91,4.848,1.251c3.018.591,6.078.89,9.36.918c6.607.07,13.103-1.098,17.887-3.185.284655-.124343.615535-.072899.849.132.129426.117196.200296.285699.193541.460171s-.090441.336991-.228541.443829C58.272,45.733,51.999,47.917,45.329,48h-.41c-6.078,0-11.892-1.752-16.6-4.972l.466,1.481c.125213.405074-.097872.835659-.501.967-.404886.126463-.83613-.096517-.967-.5l-1.28-4.056c-.075897-.233968-.034187-.490185.112-.688l.007-.007Z" fill="#00ab84"/></g></svg>
