<svg id="ev0Ht7qQsJV1" xmlns="http://www.w3.org/2000/svg" xmlns:xlink="http://www.w3.org/1999/xlink" viewBox="0 0 228 228" shape-rendering="geometricPrecision" text-rendering="geometricPrecision" project-id="0e363b0756284c5cb5b752398f117fa3" export-id="f97c8d4592174d85986f3647117aa643" cached="false"><defs><path id="ev0Ht7qQsJV2" d="M0,0h31.07v31.075h-31.07L0,0Z"/><path id="ev0Ht7qQsJV3" d="M0,32h228v-32L0,0v32Z"/></defs><g transform="matrix(.890868 0 0 0.890868 12.439649 99.746005)"><g mask="url(#ev0Ht7qQsJV7)"><path d="M16.368,31.07c-2.228.044-3.828-.187-5.39-.665-1.199-.367-2.336-.88-3.413-1.526-1.406035-.838667-2.669806-1.895523-3.744-3.131-1.530981-1.749369-2.645567-3.822977-3.26-6.065-.589415-2.157591-.71349-4.415823-.364-6.625.322-1.966.985-3.813,2.032-5.51.322-.522.688-1.015,1.044-1.513.497-.696,1.086-1.314,1.71-1.892c2.404254-2.24143,5.462076-3.655589,8.727-4.036c1.161369-.136049,2.334292-.142087,3.497-.018c1.63.178,3.191.598,4.683,1.277.646.295,1.063.98,1.032,1.676-.028435.725125-.486291,1.363528-1.164,1.623-.543.204-1.054.108-1.57-.122-1.014641-.447841-2.091124-.739803-3.193-.866-.899-.109-1.8-.109-2.702-.017-1.304704.13132-2.578084.480849-3.767,1.034-1.161743.538436-2.228833,1.261086-3.16,2.14-1.031713.967397-1.884178,2.109659-2.518,3.374-.53,1.052-.91,2.16-1.084,3.327-.100304.61233-.159104,1.230739-.176,1.851-.021932,1.233664.152238,2.462981.516,3.642.536844,1.75109,1.469988,3.354919,2.727,4.687c1.32739,1.419607,2.981764,2.493114,4.819,3.127c1.330632.462385,2.733776.680886,4.142.645c1.76082-.034694,3.491776-.461369,5.067-1.249.647-.32,1.252-.706,1.832-1.137.743881-.554102,1.418691-1.195339,2.01-1.91.977085-1.16929,1.720546-2.515328,2.19-3.965.232-.713.396-1.442.491-2.184.102-.797.126-1.602.051-2.403-.073-.778.141-1.416.805-1.865c1.026-.693,2.52-.069,2.723,1.15.13.778.121,1.567.085,2.354-.042269.965373-.177223,1.924449-.403,2.864-.222992.927346-.53096,1.832171-.92,2.703-.61549,1.377092-1.42578,2.658536-2.406,3.805-2.079174,2.438566-4.864508,4.171057-7.971,4.958-1.172.299-2.363.447-2.978.462" fill="#003449" fill-rule="evenodd"/><mask id="ev0Ht7qQsJV7" mask-type="luminance" x="-150%" y="-150%" height="400%" width="400%"><use width="31.07" height="31.075001" xlink:href="#ev0Ht7qQsJV2" fill="#fff" fill-rule="evenodd"/></mask></g><path d="M15.316,17.563l1.479-1.858c.75-.943,1.497-1.886,2.247-2.828c1.204-1.511,2.409-3.02,3.611-4.532.862-1.084,1.717-2.173,2.58-3.256.238-.297.472-.605.747-.866.701-.666,1.88-.668,2.63-.058.894.725,1.001,2.035.301,2.903-1.112,1.38-2.208,2.774-3.312,4.16l-1.784,2.243c-.327.41-.65.823-.978,1.233-.699.875-1.4,1.747-2.096,2.623-.72.905-1.433,1.816-2.152,2.722-.52.657-1.033,1.32-1.572,1.961-.734.873-2.139.925-2.957.113-1.28-1.268-2.547-2.549-3.82-3.823-.927-.929-1.853-1.86-2.787-2.782-.475-.47-.719-1.018-.694-1.695.03-.828.732-1.68,1.543-1.853.793-.17,1.46.04,2.03.615.885.895,1.78,1.78,2.67,2.672.732.732,1.462,1.466,2.194,2.2.033.033.07.062.12.106M46.012,15.49c2.506,0,3.968-1.497,3.968-3.45v-.066c0-2.247-1.56-3.451-4.066-3.451h-3.871v6.967h3.969ZM37.032,3.998h9.305c5.433,0,8.719,3.223,8.719,7.878v.066c0,5.274-4.099,8.008-9.207,8.008h-3.806v6.838h-5.01v-22.79h-.001ZM57.088,9.337h4.946v3.517c1.008-2.41,2.635-3.972,5.562-3.842v5.177h-.26c-3.285,0-5.302,1.985-5.302,6.152v6.447h-4.946v-17.451Zm23.589,7.358c-.292-2.213-1.593-3.71-3.675-3.71-2.05,0-3.384,1.463-3.774,3.71h7.45-.001ZM68.38,18.16v-.064c0-4.98,3.546-9.084,8.622-9.084c5.823,0,8.49,4.526,8.49,9.473c0,.391-.032.848-.064,1.303h-12.136c.49,2.247,2.05,3.419,4.263,3.419c1.66,0,2.863-.521,4.23-1.791l2.83,2.507c-1.627,2.018-3.97,3.256-7.126,3.256-5.237,0-9.11-3.68-9.11-9.02l.001.001Z" fill="#003449" fill-rule="evenodd"/><path d="M100.987,17.25L97.961,9.857L94.935,17.25h6.052ZM95.717,3.835h4.62l9.762,22.955h-5.24l-2.082-5.112h-9.63L91.064,26.79h-5.109L95.717,3.835Zm29.416,14.261v-.065c0-2.898-1.952-4.819-4.262-4.819s-4.23,1.921-4.23,4.819v.065c0,2.898,1.92,4.82,4.23,4.82s4.262-1.89,4.262-4.82ZM111.76,9.336h4.946v2.508c1.203-1.629,2.863-2.833,5.433-2.833c4.068,0,7.94,3.192,7.94,9.02v.065c0,5.829-3.807,9.02-7.94,9.02-2.635,0-4.262-1.205-5.433-2.605v7.489h-4.946v-22.663-.001Zm34.323,8.76v-.065c0-2.898-1.952-4.819-4.262-4.819s-4.23,1.921-4.23,4.819v.065c0,2.898,1.92,4.82,4.23,4.82s4.262-1.89,4.262-4.82ZM132.71,9.336h4.946v2.508c1.203-1.629,2.863-2.833,5.434-2.833c4.067,0,7.94,3.192,7.94,9.02v.065c0,5.829-3.808,9.02-7.94,9.02-2.636,0-4.263-1.205-5.434-2.605v7.489h-4.946v-22.663-.001Zm21.48.001h4.946v3.517c1.009-2.41,2.636-3.973,5.564-3.842v5.177h-.26c-3.286,0-5.304,1.986-5.304,6.154v6.447h-4.946v-17.453Zm25.902,8.825v-.066c0-2.573-1.855-4.819-4.588-4.819-2.831,0-4.523,2.182-4.523,4.755v.064c0,2.572,1.855,4.82,4.588,4.82c2.83,0,4.523-2.182,4.523-4.754m-13.992,0v-.066c0-5.014,4.034-9.084,9.469-9.084c5.402,0,9.403,4.004,9.403,9.02v.064c0,5.015-4.034,9.085-9.468,9.085-5.401,0-9.404-4.005-9.404-9.02m18.873-8.824h5.238l3.905,11.69l3.937-11.69h5.141L196.33,26.92h-4.491L184.973,9.337ZM215.12,20.636v-.88c-.847-.39-1.953-.65-3.157-.65-2.114,0-3.416.846-3.416,2.41v.065c0,1.334,1.106,2.116,2.7,2.116c2.31,0,3.872-1.27,3.872-3.061m-11.356,1.139v-.065c0-3.81,2.897-5.567,7.029-5.567c1.757,0,3.026.293,4.263.716v-.293c0-2.052-1.269-3.191-3.742-3.191-1.888,0-3.222.358-4.816.943l-1.237-3.777c1.92-.845,3.807-1.4,6.768-1.4c2.701,0,4.654.717,5.89,1.955c1.302,1.302,1.887,3.222,1.887,5.567v10.127h-4.783v-1.888c-1.204,1.335-2.864,2.214-5.27,2.214-3.287,0-5.989-1.889-5.989-5.341" fill="#009fc7" fill-rule="evenodd"/><g mask="url(#ev0Ht7qQsJV13)"><path d="M223.054,26.79h4.946v-23.77h-4.946v23.77Z" fill="#009fc7" fill-rule="evenodd"/><mask id="ev0Ht7qQsJV13" mask-type="luminance" x="-150%" y="-150%" height="400%" width="400%"><use width="228" height="32" xlink:href="#ev0Ht7qQsJV3" fill="#fff" fill-rule="evenodd"/></mask></g></g></svg>
