<svg id="eMY1CzcDmJU1" xmlns="http://www.w3.org/2000/svg" xmlns:xlink="http://www.w3.org/1999/xlink" viewBox="0 0 202 202" shape-rendering="geometricPrecision" text-rendering="geometricPrecision" project-id="d29e08f5717246868a67ee1336b56197" export-id="065bb42854f346a29727bf481618936e" cached="false"><defs><path id="eMY1CzcDmJU2" d="M0,0h15.031v16.682h-15.031L0,0Z"/><path id="eMY1CzcDmJU3" d="M0,0h17.926v28.075h-17.926L0,0Z"/></defs><g transform="matrix(.926266 0 0 0.926266 7.447134 76.917084)"><path d="M53.068,19.964L59.1,10.83v13.96h4.684v-21.386h-5.084l-5.633,9.044-5.632-9.044h-5.082v21.387h4.623v-13.871l5.97,9.043.122.001Zm18.17-3.392c0-2.413,1.592-4.46,4.255-4.46c2.572,0,4.317,2.108,4.317,4.522v.06c0,2.414-1.592,4.461-4.255,4.461-2.572,0-4.317-2.108-4.317-4.521v-.062Zm4.255,8.586c5.113,0,8.91-3.82,8.91-8.524v-.062c0-4.705-3.767-8.463-8.848-8.463-5.113,0-8.91,3.82-8.91,8.525v.06c0,4.706,3.766,8.464,8.848,8.464ZM97.108,12.967h.245v-4.857c-2.755-.122-4.286,1.345-5.235,3.606v-3.3h-4.654v16.374h4.654v-6.049c0-3.91,1.898-5.775,4.99-5.775m4.306,7.181c0,3.789,1.929,4.92,4.775,4.92c1.562,0,2.695-.367,3.674-.949v-3.726c-.703701.384153-1.49328.583698-2.295.58-1.042,0-1.5-.519-1.5-1.588v-6.997h3.856v-3.972h-3.857v-4.186h-4.653v4.186h-1.96v3.972h1.96v7.76Zm15.093-4.399c0-2.23,1.715-3.789,3.98-3.789c2.266,0,4.01,1.559,4.01,3.789v.06c0,2.23-1.744,3.79-4.01,3.79-2.265,0-3.98-1.528-3.98-3.79v-.06Zm2.633,7.7c2.48,0,3.98-1.01,5.358-2.66v.795c0,2.934-1.5,4.46-4.684,4.46-2.173,0-3.857-.55-5.541-1.496l-1.592,3.482c2.081,1.1,4.592,1.712,7.255,1.712c3.184,0,5.542-.672,7.073-2.2c1.377-1.375,2.081-3.513,2.081-6.446v-12.68h-4.653v2.14c-1.256-1.376-2.756-2.446-5.297-2.446-3.765,0-7.286,2.75-7.286,7.639v.06c0,4.859,3.46,7.64,7.286,7.64Zm17.33-3.607c0-1.465,1.225-2.26,3.215-2.26c1.132,0,2.174.244,2.97.61v.826c0,1.68-1.47,2.872-3.644,2.872-1.5,0-2.54-.734-2.54-1.986v-.062h-.001Zm1.133,5.256c2.265,0,3.826-.826,4.959-2.078v1.772h4.5v-9.501c0-2.199-.55-4.002-1.775-5.224-1.164-1.161-3-1.833-5.54-1.833-2.787,0-4.562.519-6.37,1.314l1.164,3.544c1.5-.55,2.755-.886,4.531-.886c2.327,0,3.52,1.069,3.52,2.993v.276c-1.287005-.457082-2.644296-.684538-4.01-.672-3.888,0-6.612,1.65-6.612,5.224v.061c0,3.238,2.54,5.01,5.633,5.01Zm16.807-9.349c0-2.23,1.715-3.789,3.98-3.789s4.01,1.559,4.01,3.789v.06c0,2.23-1.745,3.79-4.01,3.79s-3.98-1.528-3.98-3.79v-.06Zm2.633,7.7c2.48,0,3.98-1.01,5.357-2.66v.795c0,2.934-1.5,4.46-4.683,4.46-2.174,0-3.858-.55-5.541-1.496l-1.593,3.482c2.082,1.1,4.593,1.712,7.256,1.712c3.184,0,5.541-.672,7.072-2.2c1.378-1.375,2.082-3.513,2.082-6.446v-12.68h-4.654v2.14c-1.255-1.376-2.755-2.446-5.296-2.446-3.766,0-7.286,2.75-7.286,7.639v.06c0,4.859,3.46,7.64,7.286,7.64Zm17.574-8.128c.368-2.108,1.623-3.483,3.55-3.483c1.96,0,3.186,1.405,3.461,3.483h-7.011Zm3.55-7.21c-4.775,0-8.111,3.849-8.111,8.524v.06c0,5.012,3.643,8.464,8.571,8.464c2.97,0,5.175-1.16,6.705-3.056l-2.664-2.352c-1.285,1.191-2.418,1.68-3.979,1.68-2.081,0-3.552-1.099-4.01-3.207h11.418c.031-.428.061-.856.061-1.222c0-4.644-2.51-8.892-7.99-8.892l-.001.001Z" fill="#003449" fill-rule="evenodd"/><path d="M60.709,39.29l-5.632-9.043h-5.082v21.386h4.622v-13.87l5.97,9.044h.122l6.03-9.136v13.962h4.684v-21.386h-5.082L60.709,39.29Zm24.77,6.57c0,1.68-1.47,2.871-3.644,2.871-1.5,0-2.54-.734-2.54-1.986v-.061c0-1.467,1.224-2.26,3.215-2.26c1.132,0,2.173.243,2.969.61v.825.001ZM82.571,35.074c-2.786,0-4.562.52-6.369,1.314l1.164,3.544c1.5-.55,2.755-.886,4.531-.886c2.327,0,3.52,1.069,3.52,2.994v.275c-1.287047-.456921-2.644309-.684372-4.01-.672-3.888,0-6.612,1.65-6.612,5.224v.062c0,3.237,2.54,5.01,5.632,5.01c2.265,0,3.827-.826,4.96-2.078v1.773h4.5v-9.504c0-2.199-.551-4.002-1.776-5.224-1.164-1.161-3-1.833-5.54-1.833v.001Zm15.412,3.483v-3.3h-4.653v16.376h4.653v-6.048c0-3.912,1.898-5.776,4.99-5.776h.245v-4.858c-2.755-.122-4.286,1.345-5.235,3.606m23.512-3.3h-5.571l-5.45,5.958v-10.966h-4.653v21.385h4.654v-4.98l1.653-1.742l4.194,6.722h5.388l-6.46-9.93l6.245-6.447Zm13.092,8.219c0,2.719-1.806,4.522-3.98,4.522s-4.01-1.803-4.01-4.522v-.061c0-2.75,1.836-4.522,4.01-4.522s3.98,1.802,3.98,4.522v.061Zm-.061-6.08c-1.103-1.314-2.633-2.444-5.112-2.444-3.889,0-7.471,2.994-7.471,8.463v.061c0,5.469,3.643,8.463,7.47,8.463c2.418,0,3.98-1.131,5.113-2.658v2.352h4.653v-21.383h-4.653v7.147-.001Zm20.584,6.141c0,2.413-1.592,4.46-4.255,4.46-2.572,0-4.317-2.107-4.317-4.52v-.062c0-2.414,1.592-4.461,4.255-4.461c2.572,0,4.317,2.108,4.317,4.522v.061Zm-4.255-8.585c-5.113,0-8.91,3.82-8.91,8.524v.061c0,4.705,3.766,8.463,8.848,8.463c5.113,0,8.91-3.819,8.91-8.524v-.061c0-4.705-3.767-8.463-8.848-8.463Zm26.712,10.266l-3.123-10.022h-4.01l-3.092,9.99-2.633-9.93h-4.715l5.051,16.5h4.164l3.215-10.052l3.152,10.052h4.194l5.113-16.5h-4.622l-2.694,9.962Z" fill="#e67300" fill-rule="evenodd"/><g transform="translate(186.969 34.951)"><g mask="url(#eMY1CzcDmJU10)"><path d="M9.46,0C7.102,0,5.724,1.253,4.653,2.628v-2.322h-4.653v16.376h4.653v-9.135c0-2.2,1.133-3.33,2.909-3.33s2.816,1.13,2.816,3.33v9.135h4.653v-10.602C15.031,2.322,12.98,0,9.46,0" fill="#e67300" fill-rule="evenodd"/><mask id="eMY1CzcDmJU10" mask-type="luminance" x="-150%" y="-150%" height="400%" width="400%"><use width="15.031" height="16.681999" xlink:href="#eMY1CzcDmJU2" fill="#fff" fill-rule="evenodd"/></mask></g></g><path d="M16.96,6.822c.314626-.348844.765333-.543724,1.235-.534.475,0,.877.18,1.228.55.352.372.523.79.523,1.281c0,.53-.165.962-.505,1.317-.320307.346554-.774234.538544-1.246.527-.477,0-.877-.179-1.224-.545-.339089-.34638-.524982-.814356-.516-1.299c0-.515.164-.94.504-1.297m1.236,5.248c1.09,0,2.031-.39,2.8-1.155.75406-.733108,1.172906-1.744414,1.158-2.796c0-1.071-.392-2.006-1.164-2.776-.772-.771-1.712-1.162-2.794-1.162-1.075,0-2.011.39-2.784,1.162-.772.77-1.163,1.705-1.163,2.776-.015382,1.051677.403539,2.063164,1.158,2.796.73187.751279,1.740257,1.168879,2.789,1.155M43.699,30.25h-5.899c-.310483-.000545-.562352-.251521-.564-.562v-25.722c.000266-.149225-.058828-.292429-.164252-.398041s-.248523-.164959-.397748-.164959h-2.244L28.866,11.65c.832124.306829,1.587333.791419,2.213,1.42c1.179,1.175,1.802,2.668,1.802,4.314c0,1.673-.622,3.174-1.8,4.343-1.146624,1.15381-2.710409,1.795982-4.337,1.781-1.622544.012284-3.181862-.628453-4.327-1.778-.072-.072-.136-.149-.204-.222l-2.09,3.095v5.085c0,.31-.251.562-.562.562h-5.9c-.215085.00005-.411348.122642-.505746.315904s-.070438.423423.061746.593096l15.018,19.21c.227.29.665.29.889,0L44.142,31.158c.133258-.169276.157809-.39991.063173-.593446s-.291742-.315782-.507173-.314554" fill="#e67300" fill-rule="evenodd"/><path d="M25.5,16.085c.31667-.348816.768993-.543242,1.24-.533.478,0,.881.181,1.233.551s.524.789.524,1.281c0,.53-.166.96-.505,1.317-.34.355-.75.527-1.252.527-.476,0-.878-.179-1.227-.546-.340052-.345494-.526746-.813309-.518-1.298c0-.516.165-.941.505-1.3m-1.55,4.101c.736298.747794,1.745639,1.163086,2.795,1.15c1.09,0,2.034-.388,2.8-1.15.77-.762,1.158-1.705,1.158-2.8c0-1.073-.391-2.008-1.163-2.778-.773-.771-1.713-1.161-2.795-1.161-1.073,0-2.012.39-2.788,1.162-.776.77-1.17,1.704-1.17,2.776c0,1.095.392,2.038,1.164,2.801m-5.908.83l2.572-3.737l3.826-5.56l5.722-8.315h-2.518L15.598,21.015h2.445Z" fill="#e67300" fill-rule="evenodd"/><g><g mask="url(#eMY1CzcDmJU17)"><path d="M17.926,27.804v-4.371c0-.149117-.120883-.27-.27-.27h-4.476L13.18,0h-5.061L0,5.971L1.939,8.537c.132.17.332.331.604.483.471131.253608,1.027357.296814,1.532.119.21-.073.365-.176.632-.365L7.11,6.92c-.038503.74272-.058509,1.486284-.06,2.23l.002,14.012h-5.266c-.149117,0-.27.120883-.27.27v4.371c0,.149.121.27.27.27h15.87c.15,0,.27-.121.27-.27" fill="#e67300" fill-rule="evenodd"/><mask id="eMY1CzcDmJU17" mask-type="luminance" x="-150%" y="-150%" height="400%" width="400%"><use width="17.926001" height="28.075001" xlink:href="#eMY1CzcDmJU3" fill="#fff" fill-rule="evenodd"/></mask></g></g></g></svg>
