<svg id="exadUqM1r0I1" xmlns="http://www.w3.org/2000/svg" xmlns:xlink="http://www.w3.org/1999/xlink" viewBox="0 0 188 188" shape-rendering="geometricPrecision" text-rendering="geometricPrecision" project-id="d093f33614b74d2bba7f50eed5db70dc" export-id="bd21f5d63f4d407597482808e4085db5" cached="false"><defs><path id="exadUqM1r0I2" d="M0,0h17.188v21.5L0,21.5L0,0Z"/></defs><g transform="matrix(.920481 0 0 0.920481 7.474825 79.272304)"><path d="M20.931,22.317c-.237742.195803-.387348.478519-.41552.785221s.067427.611942.26552.847779c.220251.26689.548972.420416.895.418.272,0,.531-.094.742-.269l3.81-3.164c.259127-.213763.411834-.530138.418-.866.02753-.453563-.215753-.880487-.62-1.088l-3.596-3.07c-.488591-.415259-1.2208-.358076-1.639.128-.416.486-.36,1.22.127,1.634l1.386,1.183h-19.214c-.444751,0-.805448-.360249-.806-.805v-14.969c0-.443.362-.804.806-.804h15.005c.445,0,.807.36.807.804v2.921c0,.630433.511067,1.1415,1.1415,1.1415s1.1415-.511067,1.1415-1.1415v-2.92c-.00386-1.703826-1.38617-3.083004-3.09-3.083L3.09,0C1.386559,-0.000006,0.00441,1.378565,0,3.082v14.969c.00386,1.703826,1.38617,3.083004,3.09,3.083h19.264l-1.423,1.183Z" fill="#00ab84" fill-rule="evenodd"/><path d="M29.467,9.802h-19.265l1.425-1.183c.491485-.409559.558595-1.139713.15-1.632-.41143-.492733-1.143919-.559811-1.638-.15l-3.81,3.165c-.259033.213301-.411463.529493-.417.865-.027938.453915.215406.881338.62,1.089l3.595,3.07c.488738.415932,1.221713.358724,1.64-.128.415-.486.358-1.22-.128-1.634l-1.385-1.183h19.213c.444,0,.806.36.806.804v14.969c-.001103.44436-.361638.804001-.806.804h-15.005c-.444752.000553-.805897-.359249-.807-.804v-2.92c0-.630433-.511067-1.1415-1.1415-1.1415s-1.1415.511067-1.1415,1.1415v2.92c.00441,1.703435,1.386559,3.082006,3.09,3.082h15.005c1.703441.000006,3.08559-1.378565,3.09-3.082v-14.969c-.00386-1.703826-1.38617-3.083004-3.09-3.083" fill="#00ab84" fill-rule="evenodd"/><path d="M49.844,16.164c2.289,0,3.602-1.218,3.602-3.015v-.061c0-2.01-1.405-3.045-3.694-3.045h-4.67v6.121h4.762ZM40.38,5.81h9.769c2.716,0,4.822.762,6.227,2.163c1.19,1.187,1.831,2.862,1.831,4.873v.06c0,3.441-1.862,5.604-4.58,6.609l5.22,7.614h-5.494l-4.579-6.822h-3.693v6.822h-4.701v-21.32.001ZM70.784,21.372v-.823c-.794-.365-1.832-.608-2.962-.608-1.984,0-3.205.791-3.205,2.253v.061c0,1.248,1.038,1.98,2.534,1.98c2.168,0,3.633-1.188,3.633-2.863M60.13,22.438v-.061c0-3.563,2.716-5.208,6.593-5.208c1.649,0,2.84.274,4,.67v-.274c0-1.919-1.19-2.984-3.51-2.984-1.772,0-3.023.335-4.52.883l-1.16-3.532c1.802-.793,3.573-1.31,6.35-1.31c2.535,0,4.365.669,5.526,1.826c1.22,1.219,1.77,3.016,1.77,5.208v9.472h-4.487v-1.768c-1.13,1.248-2.687,2.071-4.946,2.071-3.082,0-5.616-1.767-5.616-4.994m19.357.061v-7.735h-1.954v-3.96h1.954v-4.17h4.64v4.172h3.846v3.96h-3.846v6.973c0,1.066.458,1.584,1.496,1.584.855,0,1.618-.213,2.29-.578v3.714c-.977.58-2.107.945-3.664.945-2.839,0-4.762-1.127-4.762-4.904m21.889-4.812c-.275-2.072-1.497-3.472-3.45-3.472-1.923,0-3.175,1.37-3.542,3.472h6.992Zm-11.54,1.37v-.06c0-4.66,3.328-8.498,8.09-8.498c5.465,0,7.968,4.234,7.968,8.863c0,.366-.03.792-.06,1.218h-11.388c.457,2.102,1.922,3.197,3.998,3.197c1.557,0,2.686-.487,3.968-1.674l2.657,2.345c-1.527,1.888-3.725,3.045-6.686,3.045-4.915,0-8.548-3.441-8.548-8.436h.001Z" fill="#003449" fill-rule="evenodd"/><path d="M108.617,24.021l2.778-3.32c1.924,1.584,3.939,2.59,6.38,2.59c1.924,0,3.084-.762,3.084-2.011v-.06c0-1.188-.733-1.797-4.304-2.711-4.304-1.096-7.083-2.284-7.083-6.517v-.06c0-3.869,3.114-6.427,7.48-6.427c3.114,0,5.769.974,7.937,2.71l-2.442,3.533c-1.893-1.31-3.755-2.101-5.557-2.101-1.801,0-2.748.822-2.748,1.857v.061c0,1.401.917,1.858,4.61,2.802c4.335,1.127,6.778,2.68,6.778,6.395v.061c0,4.234-3.236,6.61-7.846,6.61-3.236,0-6.503-1.128-9.067-3.412M126.82,10.804h4.7l2.626,9.898l3.083-9.959h4l3.114,9.99l2.686-9.929h4.61L146.54,27.249h-4.182l-3.144-10.02-3.206,10.02h-4.152L126.82,10.804Zm36.096,10.568v-.823c-.794-.365-1.831-.608-2.962-.608-1.984,0-3.205.791-3.205,2.253v.061c0,1.248,1.038,1.98,2.534,1.98c2.168,0,3.633-1.188,3.633-2.863m-10.654,1.066v-.061c0-3.563,2.716-5.208,6.594-5.208c1.648,0,2.838.274,3.999.67v-.274c0-1.919-1.19-2.984-3.51-2.984-1.772,0-3.023.335-4.52.883l-1.16-3.532c1.802-.793,3.573-1.31,6.35-1.31c2.535,0,4.366.669,5.526,1.826c1.221,1.219,1.77,3.016,1.77,5.208v9.472h-4.486v-1.768c-1.13,1.248-2.687,2.071-4.946,2.071-3.083,0-5.617-1.767-5.617-4.994" fill="#00ab84" fill-rule="evenodd"/><g transform="translate(170.812 10.5)"><g mask="url(#exadUqM1r0I11)"><path d="M12.548,8.497v-.061c0-2.71-1.832-4.507-4-4.507s-3.968,1.796-3.968,4.507v.061c0,2.71,1.8,4.507,3.969,4.507c2.167,0,3.999-1.766,3.999-4.507ZM0,0.305h4.64v2.345C5.77,1.127,7.327,0,9.74,0c3.816,0,7.449,2.985,7.449,8.436v.061c0,5.451-3.572,8.436-7.45,8.436-2.472,0-3.998-1.128-5.098-2.436v7.003L0,21.5L0,0.305Z" fill="#00ab84" fill-rule="evenodd"/><mask id="exadUqM1r0I11" mask-type="luminance" x="-150%" y="-150%" height="400%" width="400%"><use width="17.188" height="21.5" xlink:href="#exadUqM1r0I2" fill="#fff" fill-rule="evenodd"/></mask></g></g></g></svg>
