<svg id="eeDAQL79tPv1" xmlns="http://www.w3.org/2000/svg" xmlns:xlink="http://www.w3.org/1999/xlink" viewBox="0 0 185 185" shape-rendering="geometricPrecision" text-rendering="geometricPrecision" project-id="2af6f5f5266a4f7387184fd90af07698" export-id="b5ff0007002b4c8b832aa2351a7102d9" cached="false"><defs><path id="eeDAQL79tPv2" d="M0,0.391h16.81v21.847h-16.81L0,0.391Z"/><path id="eeDAQL79tPv3" d="M0.648,0.391h16.81v21.847h-16.81v-21.847Z"/><path id="eeDAQL79tPv4" d="M0.246,0.425h3.074v3.075h-3.074v-3.075Z"/></defs><g transform="matrix(.927455 0 0 0.927455 6.707529 74.874645)"><g transform="translate(0 0.409)"><g mask="url(#eeDAQL79tPv9)"><path d="M0,18.84l2.762-3.308c1.91,1.578,3.913,2.578,6.341,2.578c1.91,0,3.064-.758,3.064-2.002v-.06c0-1.184-.728-1.791-4.278-2.7-4.279-1.095-7.04-2.277-7.04-6.495v-.06C0.85,2.94,3.945,0.39,8.285,0.39c3.094,0,5.734.971,7.889,2.7L13.746,6.61c-1.881-1.304-3.732-2.093-5.522-2.093s-2.731.819-2.731,1.85v.06c0,1.398.91,1.852,4.582,2.793c4.308,1.122,6.736,2.67,6.736,6.372v.06c0,4.217-3.217,6.585-7.799,6.585-3.216,0-6.462-1.124-9.011-3.399" fill="#003449" fill-rule="evenodd"/><mask id="eeDAQL79tPv9" mask-type="luminance" x="-150%" y="-150%" height="400%" width="400%"><use width="16.809999" height="21.847" xlink:href="#eeDAQL79tPv2" fill="#fff" fill-rule="evenodd"/></mask></g></g><path d="M19.785,17.73v-7.706h-1.942v-3.945h1.942v-4.156h4.612v4.156h3.823v3.945h-3.823v6.948c0,1.061.455,1.577,1.486,1.577.85,0,1.608-.212,2.276-.576v3.701c-.971.578-2.093.941-3.64.941-2.822,0-4.734-1.122-4.734-4.885M30.406,6.08h4.612v3.277c.94-2.246,2.458-3.702,5.188-3.58v4.823h-.242c-3.064,0-4.946,1.85-4.946,5.733v6.008h-4.612v-16.261ZM52.1,12.937c-.272-2.064-1.486-3.459-3.428-3.459-1.912,0-3.156,1.365-3.519,3.459h6.947ZM40.632,14.302v-.06c0-4.643,3.307-8.465,8.04-8.465c5.43,0,7.919,4.216,7.919,8.828c0,.364-.03.79-.06,1.214h-11.318c.455,2.094,1.911,3.186,3.975,3.186c1.548,0,2.67-.486,3.944-1.67l2.64,2.337c-1.517,1.881-3.701,3.034-6.644,3.034-4.886,0-8.496-3.429-8.496-8.404Zm28.857-1.365c-.273-2.064-1.487-3.459-3.428-3.459-1.912,0-3.156,1.365-3.52,3.459h6.948Zm-11.47,1.365v-.06c0-4.643,3.308-8.465,8.042-8.465c5.43,0,7.918,4.216,7.918,8.828c0,.364-.03.79-.06,1.214h-11.318c.456,2.094,1.912,3.186,3.976,3.186c1.547,0,2.67-.486,3.944-1.67l2.639,2.337c-1.517,1.881-3.701,3.034-6.644,3.034-4.886,0-8.496-3.429-8.496-8.404h-.001ZM76.955,17.73v-7.706h-1.942v-3.945h1.942v-4.156h4.612v4.156h3.823v3.945h-3.823v6.948c0,1.061.455,1.577,1.486,1.577.85,0,1.608-.212,2.276-.576v3.701c-.971.578-2.094.941-3.64.941-2.822,0-4.734-1.122-4.734-4.885" fill="#003449" fill-rule="evenodd"/><g transform="translate(86.4 0.409)"><g mask="url(#eeDAQL79tPv15)"><path d="M0.648,18.84L3.41,15.532C5.32,17.11,7.323,18.11,9.75,18.11c1.91,0,3.064-.758,3.064-2.002v-.06c0-1.184-.728-1.791-4.278-2.7-4.278-1.094-7.04-2.276-7.04-6.494v-.06C1.498,2.94,4.593,0.39,8.933,0.39c3.094,0,5.734.971,7.889,2.7L14.394,6.61C12.512,5.307,10.66,4.518,8.87,4.518s-2.731.819-2.731,1.85v.06c0,1.398.91,1.852,4.582,2.793c4.308,1.122,6.736,2.67,6.736,6.372v.06c0,4.217-3.217,6.585-7.799,6.585-3.216,0-6.462-1.124-9.011-3.399" fill="#009fc7" fill-rule="evenodd"/><mask id="eeDAQL79tPv15" mask-type="luminance" x="-150%" y="-150%" height="400%" width="400%"><use width="16.809999" height="21.847" xlink:href="#eeDAQL79tPv3" fill="#fff" fill-rule="evenodd"/></mask></g></g><path d="M105.782,6.08h4.612v2.306c1.063-1.366,2.458-2.61,4.794-2.61c2.124,0,3.732.94,4.582,2.58c1.426-1.67,3.124-2.58,5.34-2.58c3.428,0,5.492,2.063,5.492,5.978v10.588h-4.612v-9.072c0-2.184-.972-3.307-2.701-3.307-1.73,0-2.791,1.123-2.791,3.307v9.072h-4.612v-9.072c0-2.184-.97-3.307-2.7-3.307s-2.792,1.123-2.792,3.307v9.072h-4.612v-16.262Zm37.232,10.528v-.82c-.79-.363-1.821-.606-2.944-.606-1.972,0-3.184.789-3.184,2.246v.06c0,1.244,1.03,1.972,2.517,1.972c2.155,0,3.61-1.184,3.61-2.852m-10.588,1.061v-.06c0-3.55,2.7-5.188,6.553-5.188c1.639,0,2.822.273,3.976.667v-.272c0-1.912-1.184-2.975-3.49-2.975-1.76,0-3.004.335-4.49.88l-1.153-3.52c1.79-.788,3.55-1.304,6.31-1.304c2.52,0,4.34.668,5.492,1.82c1.215,1.215,1.76,3.004,1.76,5.189v9.437h-4.46v-1.76c-1.123,1.244-2.67,2.063-4.915,2.063-3.065,0-5.583-1.76-5.583-4.977M149.472,6.08h4.612v3.277c.94-2.246,2.457-3.702,5.188-3.58v4.823h-.243c-3.064,0-4.945,1.85-4.945,5.733v6.008h-4.612v-16.261Zm13.185,11.65v-7.706h-1.942v-3.945h1.942v-4.156h4.612v4.156h3.823v3.945h-3.823v6.948c0,1.061.455,1.577,1.486,1.577.85,0,1.608-.212,2.276-.576v3.701c-.97.578-2.093.941-3.64.941-2.822,0-4.734-1.122-4.734-4.885m9.065,2.458l1.972-3.034c1.759,1.274,3.61,1.942,5.127,1.942c1.335,0,1.942-.486,1.942-1.214v-.06c0-1.002-1.577-1.335-3.368-1.882-2.275-.668-4.854-1.73-4.854-4.884v-.061c0-3.307,2.67-5.158,5.947-5.158c2.063,0,4.307.698,6.067,1.881l-1.76,3.186c-1.607-.941-3.215-1.517-4.4-1.517-1.121,0-1.697.485-1.697,1.122v.061c0,.91,1.547,1.334,3.307,1.942c2.275.758,4.914,1.85,4.914,4.824v.06c0,3.612-2.7,5.25-6.22,5.25-2.274,0-4.824-.758-6.977-2.458" fill="#009fc7" fill-rule="evenodd"/><g transform="translate(181.6 26.809)"><g mask="url(#eeDAQL79tPv21)"><path d="M1.723,1.914c.155,0,.265-.029.328-.085.063-.057.095-.139.095-.245.000605-.046436-.006145-.092675-.02-.137-.012629-.037803-.035472-.071375-.066-.097-.035411-.027448-.076351-.046895-.12-.057-.060381-.013499-.122135-.019875-.184-.019h-.276v.64h.243Zm.033-.892c.243,0,.422.044.538.132.116.087.174.217.174.388.003134.121655-.0365.240556-.112.336-.08624.100282-.204671.167452-.335.19.023629.014685.044874.032895.063.054.018696.023233.035421.047985.05.074l.478.703h-.312c-.046,0-.08-.018-.1-.053l-.426-.635c-.011566-.017279-.026966-.031652-.045-.042-.025398-.011449-.053186-.016595-.081-.015h-.168v.746h-.328v-1.878h.604Zm.026,2.289c.237417-.000169.47059-.062947.676-.182.19923-.115136.363948-.28158.477-.482.118453-.207744.180507-.442859.18-.682.002034-.358397-.136971-.703216-.387-.96-.248313-.255344-.58983-.398666-.946-.397-.475542-.002152-.914609.254545-1.146.67-.118646.20939-.180039.446341-.178.687.00042.238765.061681.473484.178.682.170179.303078.454724.525311.79.617.114.031.232.047.356.047Zm0-2.886c.272717-.000084.540545.072395.776.21.347741.201232.601595.532034.706.92.075333.267124.075333.549876,0,.817-.105372.386977-.359041.716819-.706.918-.23484.139068-.503077.211658-.776.21-.272298.001698-.539901-.070908-.774-.21-.34516-.203692-.598684-.532414-.708-.918-.03697-.13249-.055478-.269449-.055-.407-.001839-.273262.070757-.541868.21-.777.276696-.470685.781015-.760659,1.327-.763Z" fill="#009fc7" fill-rule="evenodd"/><mask id="eeDAQL79tPv21" mask-type="luminance" x="-150%" y="-150%" height="400%" width="400%"><use width="3.074" height="3.075" xlink:href="#eeDAQL79tPv4" fill="#fff" fill-rule="evenodd"/></mask></g></g><path d="M110.533,32.238v-.023c0-1.029-.693-1.71-1.514-1.71-.82,0-1.503.681-1.503,1.71v.023c0,1.029.683,1.711,1.503,1.711s1.514-.67,1.514-1.71m-2.993,2.277v.809h-1.757v-8.438h1.756v3.132c.429-.578,1.017-1.006,1.93-1.006c1.446,0,2.82,1.133,2.82,3.202v.023c.002,2.07-1.35,3.202-2.818,3.202-.937,0-1.515-.427-1.931-.924m9.361-5.386h1.826l-2.38,6.345c-.474,1.26-.983,1.734-2.035,1.734-.635,0-1.11-.162-1.56-.428l.59-1.272c.23.139.52.244.75.244.301,0,.464-.093.614-.405l-2.429-6.219h1.861l1.41,4.22l1.353-4.22v.001Zm5.593-1.897h1.92l2.126,3.422l2.127-3.422h1.918l.001,8.092h-1.769v-5.283L126.54,33.5h-.046l-2.254-3.422v5.248h-1.745l-.001-8.093Zm9.386,1.897h1.756v1.247c.359-.855.936-1.41,1.977-1.363v1.838h-.093c-1.167-.001-1.884.705-1.884,2.184l.001,2.289h-1.757v-6.196.001Zm3.259,4.346h1.872v1.85l-1.871-.002-.001-1.848Zm5.744-2.173v-.023c0-2.3,1.734-4.185,4.219-4.185c1.526,0,2.438.509,3.19,1.249l-1.133,1.306c-.624-.566-1.26-.913-2.068-.913-1.364,0-2.348,1.133-2.348,2.519v.024c0,1.386.96,2.542,2.348,2.542.924,0,1.49-.37,2.126-.947l1.133,1.144c-.832.89-1.756,1.445-3.317,1.445-2.38,0-4.15-1.838-4.15-4.16m12.794.958v-.023c0-.913-.658-1.71-1.63-1.71-1.005,0-1.606.774-1.606,1.687v.023c0,.913.659,1.711,1.63,1.711c1.005,0,1.606-.774,1.606-1.688m-4.97,0v-.023c0-1.78,1.433-3.225,3.364-3.225c1.918,0,3.34,1.422,3.34,3.202v.023c0,1.78-1.432,3.225-3.363,3.225-1.919,0-3.34-1.421-3.34-3.202m12.182,0v-.023c0-.913-.659-1.71-1.63-1.71-1.006,0-1.607.774-1.607,1.687v.023c0,.913.659,1.711,1.63,1.711c1.006,0,1.606-.774,1.606-1.688m-4.97,0v-.023c0-1.78,1.434-3.225,3.364-3.225c1.918,0,3.34,1.422,3.34,3.202v.023c0,1.78-1.432,3.225-3.362,3.225-1.92,0-3.341-1.421-3.341-3.202m12.262-.023v-.023c0-1.03-.694-1.71-1.514-1.71-.821,0-1.503.68-1.503,1.71v.023c0,1.029.682,1.711,1.503,1.711.82,0,1.514-.67,1.514-1.711Zm-4.75-3.109h1.756v.89c.428-.578,1.017-1.006,1.93-1.006c1.446,0,2.82,1.133,2.82,3.202v.023c.002,2.07-1.35,3.201-2.818,3.201-.937,0-1.515-.427-1.932-.924v2.658h-1.756v-8.044Zm11.408,2.613c-.104-.786-.567-1.318-1.306-1.318-.728,0-1.202.52-1.342,1.317h2.648v.001Zm-4.37.519v-.023c0-1.768,1.26-3.225,3.064-3.224c2.07,0,3.016,1.606,3.016,3.364c0,.138-.012.3-.023.462h-4.311c.173.797.728,1.213,1.514,1.214.59,0,1.017-.185,1.503-.636l1.006.89c-.578.717-1.41,1.155-2.531,1.155-1.862,0-3.237-1.306-3.238-3.202Zm6.923-3.132h1.757v1.249c.358-.855.936-1.41,1.977-1.364v1.837h-.093c-1.167,0-1.884.706-1.884,2.185v2.289h-1.756v-6.196h-.001Z" fill="#009fc7" fill-rule="evenodd"/></g></svg>
